<svg xmlns="http://www.w3.org/2000/svg" width="75" height="75">
  <g transform="matrix(1 0 0 1 -6 70)">
    <path
      d="M9.47266-40.7227C3.85742-38.1348 4.93164-30.2246 11.7188-30.1758L39.2578-30.0293C39.8926-30.0293 40.0879-29.834 40.0879-29.1992L40.1855-1.85547C40.1855 4.63867 48.0469 6.29883 51.0742-0.195312L79.4434-61.5723C82.4219-67.8711 77.3438-72.1191 71.2402-69.2871ZM17.041-36.7188C16.7969-36.7188 16.6992-37.0117 16.9922-37.1582L71.582-62.0117C71.9238-62.1582 72.168-61.9629 71.9727-61.5723L47.1191-7.17773C46.9727-6.83594 46.6309-6.93359 46.6309-7.22656L46.8262-33.8867C46.8262-35.6445 45.5566-36.8652 43.7988-36.8652Z" />
  </g>
</svg>
